<svg width="512" height="512" viewBox="0 0 512 512" fill="none" xmlns="http://www.w3.org/2000/svg">
  <!-- Isotipo: https://xeoxsrcjecrrcsvsqfvy.supabase.co/storage/v1/object/public/assets/brand/Isotipo.svg -->
  <defs>
    <linearGradient id="birriIcon_g0" x1="-0.0734863" y1="101.5" x2="91.0185" y2="101.5" gradientUnits="userSpaceOnUse">
      <stop stop-color="#FF0000"/>
      <stop offset="1" stop-color="#550002"/>
    </linearGradient>
    <linearGradient id="birriIcon_g1" x1="78546.2" y1="125367" x2="60709.3" y2="107800" gradientUnits="userSpaceOnUse">
      <stop stop-color="#FF0000"/>
      <stop offset="1" stop-color="#550002"/>
    </linearGradient>
    <clipPath id="birriIcon_iso">
      <rect width="141.928" height="203" fill="white"/>
    </clipPath>
    <clipPath id="birriIcon_tile">
      <rect width="512" height="512" rx="114" ry="114"/>
    </clipPath>
  </defs>
  <g clip-path="url(#birriIcon_tile)">
    <rect width="512" height="512" rx="114" ry="114" fill="#FFFFFF"/>
    <!-- ~72% of tile for mark; centered on isotipo bbox center (71, 101.5) -->
    <g transform="translate(256, 256) scale(1.75) translate(-71, -101.5)">
      <g clip-path="url(#birriIcon_iso)">
        <path d="M91.0185 202.204C87.843 202.718 84.6313 202.974 81.4147 202.972H4.57144C1.96942 202.972 -0.0734863 200.957 -0.0734863 198.039V4.96103C-0.0734863 2.35901 1.96942 0.0279541 4.57144 0.0279541H48.9067C40.2232 3.79296 32.5496 9.55197 26.5084 16.8377C20.4672 24.1235 16.2286 32.7308 14.1365 41.9612C11.3994 52.801 10.0183 63.9386 10.0249 75.1186C9.97719 105.69 19.9796 135.429 38.4922 159.757V164.406H42.1651C44.2726 166.987 46.423 169.462 48.6164 171.832C51.898 176.313 56.3579 180.347 61.2609 183.893C70.2299 191.421 80.2562 197.591 91.0185 202.204Z" fill="url(#birriIcon_g0)"/>
        <path d="M122.871 98.612L119.994 96.0014C119.994 96.0014 113.661 101.835 102.79 108.214C92.8082 114.071 89.5503 115.159 85.157 121.249C95.479 122.97 103.158 131.765 103.158 142.672C103.158 154.572 93.3006 164.406 81.4238 164.406H77.0864C77.9165 167.056 85.3613 188.706 109.394 196.095C128.748 185.977 142.008 165.746 142.008 142.672C142.001 125.557 135.047 110.484 122.871 98.612Z" fill="url(#birriIcon_g1)"/>
        <path d="M79.0322 1.76764L78.7053 9.11134C78.7053 9.11134 96.9087 19.971 97.7065 19.4914C98.5043 19.0119 106.171 19.3323 106.171 19.3323L79.0322 1.76764Z" fill="#1C1B28"/>
        <path d="M120.297 46.7825C120.297 46.7825 113.59 51.051 114.045 52.8811C114.501 54.7111 118.619 66.7534 118.619 66.7534L120.297 46.7825Z" fill="#1C1B28"/>
        <path d="M103.651 198.187C81.699 191.536 69.6093 172.795 69.6093 148.67C69.6038 139.817 71.7995 131.101 75.9989 123.308C80.1982 115.514 86.2694 108.887 93.6661 104.022C95.1499 103.044 96.6939 102.134 98.2766 101.3L92.3049 95.8422C85.3071 99.2918 77.5366 100.875 69.747 100.438C46.5052 99.1904 27.8008 80.2345 26.8224 56.9862C26.5454 50.7521 27.564 44.5283 29.8136 38.7076L25.2547 34.5401C25.2547 34.5401 24.6977 33.9896 23.6956 33.0112C22.262 36.6583 20.9976 40.3814 19.9023 44.1805C14.4006 63.2891 13.4881 83.4267 17.239 102.955C20.99 122.483 29.2984 140.849 41.4882 156.559C58.1132 177.917 77.5702 192.132 104.457 199.334C104.472 199.079 104.4 198.828 104.254 198.62C104.107 198.412 103.895 198.259 103.651 198.187ZM73.2414 104.644C52.3479 128.311 61.5775 158.334 65.6526 169.073C60.7646 161.299 55.6079 150.112 54.7349 136.64C53.0145 109.975 61.0098 103.39 61.0098 103.39L58.3863 101.937C66.0913 104.132 72.3812 104.747 73.2435 104.65L73.2414 104.644ZM30.1985 83.8278C33.2887 88.8792 38.0046 92.7628 43.1978 95.7326C42.3248 99.7001 41.2173 110.405 46.2686 132.72C49.1459 145.433 54.7908 156.082 60.3195 164.116C42.2624 142.59 27.3901 123.454 30.1985 83.8278Z" fill="#1C1B28"/>
        <path d="M72.5595 1.17197C46.8125 1.17197 25.3276 19.4162 20.3322 43.6772C19.5971 47.238 19.2274 50.8645 19.229 54.5003C19.229 83.9611 43.0987 107.831 72.5595 107.831C79.9134 107.843 87.1892 106.324 93.924 103.371C112.744 95.139 125.89 76.3551 125.89 54.5003C125.89 25.0481 102.014 1.17197 72.5595 1.17197ZM117.607 49.163C115.174 47.7738 111.239 45.9373 108.166 44.5589C106.601 40.9032 101.145 32.8283 98.6398 29.4307C99.9301 24.8739 99.7301 19.6097 99.6376 18.1259C104.585 21.8069 108.729 26.4575 111.819 31.7938C114.908 37.1301 116.878 43.0401 117.607 49.163ZM46.5781 31.8822C48.1135 30.4672 53.3605 25.8438 56.3862 24.2783C58.6097 23.1299 60.7817 22.1795 62.0848 21.2999C67.048 22.9084 73.0907 26.261 79.9333 31.2435C79.2559 34.3293 79.1377 45.0621 79.1162 48.7436L61.7278 59.4162C58.3581 57.8786 49.0984 54.2014 45.7201 52.8208C45.3215 45.83 45.6089 38.8169 46.5781 31.8822ZM43.1912 53.0337C40.7203 55.1454 37.2194 61.829 35.6367 64.4611L27.4458 59.2721C27.28 57.6869 27.1967 56.0942 27.1963 54.5003C27.1917 47.0571 29.0275 39.7282 32.5401 33.166C34.599 31.0833 36.8457 29.1951 39.2516 27.5254C39.4365 27.6781 39.6386 27.8087 39.8537 27.9146C39.8537 27.9146 42.26 29.9769 44.118 31.2736C43.0819 38.4777 42.7714 45.7676 43.1912 53.0337ZM97.1066 18.0399C97.2593 20.0914 97.2528 24.1643 96.4615 27.7168C93.6659 27.6157 86.2792 29.2608 82.5181 30.0285C76.712 25.7083 69.7919 21.2913 63.3966 19.1022C63.4998 17.6829 63.5277 15.1841 63.3321 13.6143C67.8953 11.5521 72.5036 9.93493 76.6647 9.33497C83.3246 9.93438 89.7675 12.0088 95.526 15.4078C96.3389 16.1282 97.0335 17.0399 97.1066 18.0399ZM59.5667 12.5735C57.5711 12.866 54.9583 13.3068 52.5477 13.8014C56.9172 11.641 61.6091 10.2059 66.4394 9.55216C64.1342 10.4317 61.8268 11.4617 59.5667 12.5735ZM62.9751 61.6032L80.6086 50.7822C84.2643 52.752 93.6745 57.8034 96.7905 59.4205L97.6313 78.598C93.6401 79.5979 83.2235 86.8255 80.7913 88.7953L62.5127 78.8646C63.031 74.9379 63.1192 65.3922 62.9643 61.6139L62.9751 61.6032ZM41.0924 21.859C40.4795 22.7536 39.9225 23.6138 39.4882 24.3406L39.4086 24.3901C38.7979 24.7815 38.213 25.175 37.6474 25.5707C38.7263 24.2708 39.8764 23.0317 41.0924 21.859ZM27.9103 62.5494L35.2669 67.2093C36.813 71.2371 42.7568 80.5721 44.4857 82.6924C44.4857 82.7719 44.4664 82.8537 44.4621 82.9332C44.2707 85.6664 44.247 88.1738 44.2707 89.9329C35.6842 83.0847 29.8716 73.3558 27.9103 62.5494ZM46.834 91.8467C46.7867 90.6016 46.6985 87.1395 46.9609 83.245C50.6489 82.987 57.8807 81.3763 60.7881 80.8043L79.6538 91.0554C79.3162 92.8445 79.1871 95.4293 79.1355 97.154C79.1229 97.6082 79.2679 98.0527 79.5458 98.4122C79.8237 98.7716 80.2174 99.0238 80.6602 99.1259C68.8644 101.264 56.702 98.6429 46.834 91.836V91.8467ZM106.685 84.3568C106.618 83.2257 102.814 80.6258 100.158 79.2151L99.2807 59.1366C102.003 56.8228 106.119 49.7629 107.854 47.1932C111.811 48.9866 116.372 51.1693 117.746 52.251L117.86 52.3391C117.895 53.0595 117.914 53.7842 117.914 54.5111C117.925 65.4939 113.934 76.1045 106.687 84.3568H106.685Z" fill="#1C1B28"/>
      </g>
    </g>
  </g>
</svg>
