<svg width="451" height="122" viewBox="0 0 451 122" fill="none" xmlns="http://www.w3.org/2000/svg">
<g clip-path="url(#clip0_1_2)">
<path d="M151.08 120.89L149.7 116.43H142.95L141.57 120.89H138.16L143.88 103.58H148.85L154.62 120.89H151.08ZM148.95 113.97L148.02 110.94C147.8 110.22 147.59 109.4 147.39 108.48C147.19 107.56 147.06 106.75 147.01 106.05H145.66C145.56 107.29 145.22 108.92 144.63 110.94L143.7 113.97H148.94H148.95Z" fill="#363436"/>
<path d="M161.38 115.47L164.14 114.52C164.36 115.79 164.88 116.79 165.72 117.5C166.56 118.22 167.61 118.58 168.88 118.58C170.05 118.58 170.98 118.35 171.65 117.9C172.33 117.45 172.67 116.81 172.67 115.99C172.67 115.37 172.49 114.89 172.12 114.54C171.75 114.19 171.24 113.93 170.59 113.76C169.94 113.59 169.05 113.44 167.93 113.31C165.97 113.04 164.42 112.54 163.28 111.8C162.14 111.06 161.56 109.93 161.56 108.39C161.56 107.35 161.84 106.45 162.41 105.67C162.98 104.89 163.77 104.3 164.79 103.89C165.81 103.48 166.99 103.28 168.33 103.28C170.55 103.28 172.26 103.73 173.43 104.63C174.61 105.53 175.27 106.86 175.43 108.62L172.72 109.27C172.5 108.1 172.07 107.23 171.42 106.65C170.77 106.07 169.72 105.78 168.28 105.78C167.23 105.78 166.37 105.98 165.72 106.37C165.07 106.76 164.74 107.32 164.74 108.04C164.74 108.63 164.95 109.09 165.37 109.43C165.79 109.77 166.34 110.03 167.01 110.19C167.69 110.36 168.6 110.52 169.76 110.67C171 110.85 172.05 111.11 172.91 111.42C173.77 111.74 174.47 112.24 175.02 112.93C175.56 113.62 175.83 114.54 175.83 115.69C175.83 116.84 175.53 117.81 174.93 118.65C174.33 119.49 173.5 120.12 172.46 120.56C171.42 120.99 170.23 121.21 168.91 121.21C166.9 121.21 165.21 120.7 163.84 119.69C162.47 118.68 161.65 117.27 161.38 115.46V115.47Z" fill="#363436"/>
<path d="M184.97 120.89V103.58H188.23V120.89H184.97Z" fill="#363436"/>
<path d="M197.24 115.47L200 114.52C200.22 115.79 200.74 116.79 201.58 117.5C202.42 118.22 203.47 118.58 204.74 118.58C205.91 118.58 206.84 118.35 207.51 117.9C208.19 117.45 208.53 116.81 208.53 115.99C208.53 115.37 208.35 114.89 207.98 114.54C207.61 114.19 207.1 113.93 206.45 113.76C205.8 113.59 204.91 113.44 203.79 113.31C201.83 113.04 200.28 112.54 199.14 111.8C198 111.06 197.42 109.93 197.42 108.39C197.42 107.35 197.7 106.45 198.27 105.67C198.84 104.89 199.63 104.3 200.65 103.89C201.67 103.48 202.85 103.28 204.19 103.28C206.41 103.28 208.12 103.73 209.29 104.63C210.47 105.53 211.13 106.86 211.29 108.62L208.58 109.27C208.36 108.1 207.93 107.23 207.28 106.65C206.63 106.07 205.58 105.78 204.14 105.78C203.09 105.78 202.23 105.98 201.58 106.37C200.93 106.76 200.6 107.32 200.6 108.04C200.6 108.63 200.81 109.09 201.23 109.43C201.65 109.77 202.2 110.03 202.87 110.19C203.55 110.36 204.46 110.52 205.62 110.67C206.86 110.85 207.91 111.11 208.77 111.42C209.63 111.74 210.33 112.24 210.88 112.93C211.42 113.62 211.69 114.54 211.69 115.69C211.69 116.84 211.39 117.81 210.79 118.65C210.19 119.49 209.36 120.12 208.32 120.56C207.28 120.99 206.09 121.21 204.77 121.21C202.76 121.21 201.07 120.7 199.7 119.69C198.33 118.68 197.51 117.27 197.24 115.46V115.47Z" fill="#363436"/>
<path d="M233.65 106.14H227.86V120.89H224.6V106.14H218.81V103.58H233.66V106.14H233.65Z" fill="#363436"/>
<path d="M245.25 118.25H254.43V120.88H241.99V103.57H254.03V106.13H245.25V110.77H253L252.82 113.28H245.25V118.25Z" fill="#363436"/>
<path d="M278.34 103.58V120.89H273.7L266.3 106.14H265.97C266.3 108.82 266.47 111.22 266.47 113.34V120.89H263.38V103.58H268.3L275.52 117.93H275.9C275.48 115.32 275.27 112.81 275.27 110.41V103.59H278.33L278.34 103.58Z" fill="#363436"/>
<path d="M288.49 117.21C287.82 115.9 287.49 114.32 287.49 112.48C287.49 110.64 287.83 108.98 288.52 107.59C289.2 106.2 290.18 105.13 291.45 104.38C292.72 103.63 294.22 103.25 295.94 103.25C298.28 103.25 300.11 103.84 301.42 105.02C302.73 106.2 303.44 107.81 303.54 109.85L300.66 110.2C300.56 108.9 300.12 107.85 299.33 107.05C298.54 106.26 297.43 105.86 295.99 105.86C294.4 105.86 293.16 106.44 292.27 107.6C291.38 108.76 290.93 110.36 290.93 112.4C290.93 114.44 291.4 115.84 292.35 116.91C293.29 117.98 294.55 118.52 296.12 118.52C297.51 118.52 298.56 118.19 299.28 117.53C300 116.87 300.48 116.02 300.74 114.98L303.6 115.61C303.32 117.17 302.55 118.49 301.29 119.57C300.04 120.66 298.23 121.2 295.87 121.2C294.15 121.2 292.66 120.86 291.39 120.18C290.13 119.5 289.16 118.51 288.49 117.2V117.21Z" fill="#363436"/>
<path d="M312.38 120.89V103.58H315.64V120.89H312.38Z" fill="#363436"/>
<path d="M336.9 120.89L335.52 116.43H328.77L327.39 120.89H323.98L329.7 103.58H334.67L340.44 120.89H336.9ZM334.76 113.97L333.83 110.94C333.61 110.22 333.4 109.4 333.2 108.48C333 107.56 332.87 106.75 332.82 106.05H331.47C331.37 107.29 331.03 108.92 330.44 110.94L329.51 113.97H334.75H334.76Z" fill="#363436"/>
<path d="M347.19 115.47L349.95 114.52C350.17 115.79 350.69 116.79 351.53 117.5C352.37 118.22 353.42 118.58 354.69 118.58C355.86 118.58 356.79 118.35 357.46 117.9C358.14 117.45 358.48 116.81 358.48 115.99C358.48 115.37 358.3 114.89 357.93 114.54C357.56 114.19 357.05 113.93 356.4 113.76C355.75 113.59 354.86 113.44 353.74 113.31C351.78 113.04 350.23 112.54 349.09 111.8C347.95 111.06 347.37 109.93 347.37 108.39C347.37 107.35 347.65 106.45 348.22 105.67C348.79 104.89 349.58 104.3 350.6 103.89C351.62 103.48 352.8 103.28 354.14 103.28C356.36 103.28 358.07 103.73 359.24 104.63C360.42 105.53 361.08 106.86 361.24 108.62L358.53 109.27C358.31 108.1 357.88 107.23 357.23 106.65C356.58 106.07 355.53 105.78 354.09 105.78C353.04 105.78 352.18 105.98 351.53 106.37C350.88 106.76 350.55 107.32 350.55 108.04C350.55 108.63 350.76 109.09 351.18 109.43C351.6 109.77 352.15 110.03 352.82 110.19C353.5 110.36 354.41 110.52 355.57 110.67C356.81 110.85 357.86 111.11 358.72 111.42C359.58 111.74 360.28 112.24 360.83 112.93C361.37 113.62 361.64 114.54 361.64 115.69C361.64 116.84 361.34 117.81 360.74 118.65C360.14 119.49 359.31 120.12 358.27 120.56C357.23 120.99 356.04 121.21 354.72 121.21C352.71 121.21 351.02 120.7 349.65 119.69C348.28 118.68 347.46 117.27 347.19 115.46V115.47Z" fill="#363436"/>
<path d="M239.89 19.77C249.06 19.77 256.27 20.88 262.58 22.87C263.9 23.29 264.83 24.48 264.9 25.86L265.19 31.74C265.3 34.03 263.1 35.74 260.92 35.04C254.39 32.96 247.51 31.83 239.36 31.83C228.68 31.83 223.33 33.97 223.33 37.92C223.33 49.67 269.49 37.71 269.49 64.52C269.49 77.45 258.59 83.65 239.15 83.65C229.08 83.65 220.23 82.07 211.8 78.47C210.68 77.99 209.93 76.9 209.84 75.68L209.42 69.74C209.25 67.3 211.71 65.52 213.97 66.47C222.3 69.97 229.86 71.47 238.09 71.47C248.56 71.47 254.44 69.01 254.44 64.42C254.44 51.49 208.6 62.71 208.6 37.92C208.6 25.95 219.71 19.76 239.9 19.76L239.89 19.77Z" fill="#363436"/>
<path d="M279.73 32.49H272.16C270.58 32.49 269.3 31.21 269.3 29.63V22.72C269.3 21.14 270.58 19.86 272.16 19.86H280.06C281.64 19.86 282.92 18.58 282.92 17V11.69C282.92 10.75 283.38 9.88 284.15 9.34L297.34 0.2C298.07 -0.3 299.06 0.22 299.06 1.1V17.01C299.06 18.59 300.34 19.87 301.92 19.87H325.19C326.77 19.87 328.05 21.15 328.05 22.73V29.64C328.05 31.22 326.77 32.5 325.19 32.5H301.92C300.34 32.5 299.06 33.78 299.06 35.36V56.88C299.06 65.55 304.77 70.06 315.2 70.06C318.06 70.06 322.01 69.74 326.62 68.5C328.65 67.96 330.57 69.66 330.21 71.73L329.09 78.24C328.92 79.22 328.25 80.07 327.32 80.42C321.75 82.55 315.99 83.66 310.15 83.66C293.46 83.66 282.59 74.44 282.59 62.36V35.35C282.59 33.77 281.31 32.49 279.73 32.49Z" fill="#363436"/>
<path d="M342.75 19.83H351.8C353.9 19.83 355.6 21.53 355.6 23.63V30.07C355.6 31.31 357.19 31.78 357.89 30.76C363.42 22.69 372.25 18.92 381.24 18.92C381.6 18.92 381.96 18.92 382.32 18.94C384.38 19.01 386.03 20.68 386.03 22.74V31.45C386.03 33.78 383.95 35.57 381.65 35.19C379.38 34.82 377.19 34.65 375.09 34.65C368.16 34.65 362.07 36.72 357.42 40.68C356.56 41.41 356.06 42.48 356.06 43.61V79.87C356.06 81.97 354.36 83.67 352.26 83.67H342.76C340.66 83.67 338.96 81.97 338.96 79.87V23.63C338.96 21.53 340.66 19.83 342.76 19.83H342.75Z" fill="#363436"/>
<path d="M427.53 19.77H411.4C398.74 19.77 388.47 30.04 388.47 42.7V60.73C388.47 73.39 398.74 83.66 411.4 83.66H427.53C440.19 83.66 450.46 73.39 450.46 60.73V42.7C450.46 30.04 440.19 19.77 427.53 19.77ZM437.14 57.99C437.14 64.63 431.76 70.02 425.11 70.02H413.82C407.18 70.02 401.79 64.64 401.79 57.99V45.43C401.79 38.79 407.17 33.4 413.82 33.4H425.11C431.75 33.4 437.14 38.78 437.14 45.43V57.99Z" fill="#363436"/>
<path d="M188.12 21.35V25.82C186.14 24.13 182.81 21.79 178.14 20.56C175.82 19.96 173.73 19.77 172.04 19.76H158.69C145.56 19.76 134.92 30.4 134.92 43.53V59.91C134.92 73.04 145.56 83.68 158.69 83.68H172.04C173.73 83.68 175.82 83.5 178.14 82.88C182.87 81.63 186.19 79.2 188.13 77.48V82.35C188.13 83.08 188.72 83.68 189.46 83.68H200.15C200.88 83.68 201.48 83.09 201.48 82.35V21.35C201.48 20.62 200.89 20.02 200.15 20.02H189.46C188.73 20.02 188.13 20.61 188.13 21.35H188.12ZM183.46 56.54C183.46 64.17 177.27 70.36 169.64 70.36H161.05C153.42 70.36 147.23 64.17 147.23 56.54V46.65C147.23 39.02 153.42 32.83 161.05 32.83H169.64C177.27 32.83 183.46 39.02 183.46 46.65V56.54Z" fill="#363436"/>
<path d="M44.78 0.150002H72.61C97.32 0.150002 117.39 20.21 117.39 44.93V76.99C117.39 101.7 97.33 121.77 72.61 121.77H44.78C20.06 121.77 0 101.7 0 76.99V44.93C0 20.22 20.06 0.150002 44.78 0.150002Z" fill="#DA482A"/>
<path d="M70.45 86.23C71.02 87.71 71.58 89.18 72.15 90.66C73.88 95.19 71.04 100.24 66.24 100.95C64.13 101.26 61.79 101.25 59.36 100.6C55.26 99.5 52.71 97.05 49.49 93.96C45.62 90.25 44.77 87.76 37.86 78.56C36.45 76.68 35.04 74.8 33.48 72.72C35.35 71.95 37.22 71.19 39.09 70.42C42.45 69.04 46.32 70.21 48.34 73.24C50.99 77.19 54.62 82.44 57.24 85.48C57.94 86.29 59.15 87.63 61.14 88.34C63.56 89.21 65.77 88.65 66.4 88.49C68.45 87.95 69.81 86.83 70.45 86.23Z" fill="#363436"/>
<path d="M33.42 72.72C31.94 73.29 30.47 73.85 28.99 74.42C24.46 76.15 19.41 73.31 18.7 68.51C18.39 66.4 18.4 64.06 19.05 61.63C20.15 57.53 22.6 54.98 25.69 51.76C29.4 47.89 31.89 47.04 41.09 40.13C42.97 38.72 44.85 37.31 46.93 35.75C47.7 37.62 48.46 39.49 49.23 41.36C50.61 44.72 49.44 48.59 46.41 50.61C42.46 53.26 37.21 56.89 34.17 59.51C33.36 60.21 32.02 61.42 31.31 63.41C30.44 65.83 31 68.04 31.16 68.67C31.7 70.72 32.82 72.08 33.42 72.72Z" fill="#363436"/>
<path d="M46.94 35.69C46.37 34.21 45.81 32.74 45.24 31.26C43.51 26.73 46.35 21.68 51.15 20.97C53.26 20.66 55.6 20.67 58.03 21.32C62.13 22.42 64.68 24.87 67.9 27.96C71.77 31.67 72.62 34.16 79.53 43.36C80.94 45.24 82.35 47.12 83.91 49.2C82.04 49.97 80.17 50.73 78.3 51.5C74.94 52.88 71.07 51.71 69.05 48.68C66.4 44.73 62.77 39.48 60.15 36.44C59.45 35.63 58.24 34.29 56.25 33.58C53.83 32.71 51.62 33.27 50.99 33.43C48.94 33.97 47.58 35.09 46.94 35.69Z" fill="#363436"/>
<path d="M83.96 49.2C85.44 48.63 86.91 48.07 88.39 47.5C92.92 45.77 97.97 48.61 98.68 53.41C98.99 55.52 98.98 57.86 98.33 60.29C97.23 64.39 94.78 66.94 91.69 70.16C87.98 74.03 85.49 74.88 76.29 81.79C74.41 83.2 72.53 84.61 70.45 86.17C69.68 84.3 68.92 82.43 68.15 80.56C66.77 77.2 67.94 73.33 70.97 71.31C74.92 68.66 80.17 65.03 83.21 62.41C84.02 61.71 85.36 60.5 86.07 58.51C86.94 56.09 86.38 53.88 86.22 53.25C85.68 51.2 84.56 49.84 83.96 49.2Z" fill="#363436"/>
</g>
<defs>
<clipPath id="clip0_1_2">
<rect width="450.46" height="121.77" fill="white"/>
</clipPath>
</defs>
</svg>
