<svg width="156" height="48" viewBox="0 0 156 48" fill="none" xmlns="http://www.w3.org/2000/svg">
<g clip-path="url(#clip0_6_35)">
<path d="M14.1867 31.5871C13.6905 31.6671 13.1887 31.7071 12.6861 31.7068H0.6827C0.275789 31.7068 -0.0457855 31.3946 -0.0457855 30.9367V0.775308C-0.0492049 0.577069 0.0251173 0.385369 0.16127 0.241241C0.297423 0.0971134 0.484587 0.0120081 0.6827 0.00415039H7.60852C6.25133 0.59296 5.05212 1.49351 4.10824 2.63268C3.16435 3.77186 2.50239 5.11755 2.1761 6.56052C1.74852 8.25416 1.53283 9.99432 1.53399 11.7411C1.52741 16.515 3.08986 21.1589 5.98087 24.9579V25.6864H6.55638C6.88524 26.0895 7.22103 26.4763 7.56377 26.8468C8.07579 27.5472 8.77409 28.1768 9.54109 28.7315C10.9417 29.9053 12.5069 30.8674 14.1867 31.5871Z" fill="url(#paint0_linear_6_35)"/>
<path d="M19.1622 15.4023L18.7105 14.9943C18.7105 14.9943 17.7218 15.906 16.0234 16.903C14.4624 17.8177 13.9556 17.9874 13.2698 18.9385C14.0606 19.069 14.7786 19.4781 15.294 20.092C15.8094 20.7059 16.0881 21.4839 16.0796 22.2854C16.0734 23.184 15.7135 24.044 15.078 24.6793C14.4425 25.3146 13.5824 25.6742 12.6838 25.6802H12.0063C12.1364 26.0964 13.2989 29.4745 17.0537 30.6307C20.0717 29.0499 22.1479 25.8893 22.1479 22.2854C22.15 19.614 21.0656 17.2589 19.1622 15.4023Z" fill="url(#paint1_linear_6_35)"/>
<path d="M12.3146 0.275787L12.2646 1.42055C12.2646 1.42055 15.1078 3.11688 15.2327 3.04195C15.3576 2.96702 16.5544 3.01697 16.5544 3.01697L12.3146 0.275787Z" fill="#1C1B28"/>
<path d="M18.7594 7.30774C18.7594 7.30774 17.7125 7.97483 17.7832 8.26102C17.854 8.54721 18.4982 10.4277 18.4982 10.4277L18.7594 7.30774Z" fill="#1C1B28"/>
<path d="M16.1597 30.9596C12.7306 29.9189 10.8418 26.9925 10.8418 23.2241C10.8414 21.8415 11.1846 20.4805 11.8405 19.2634C12.4965 18.0463 13.4446 17.0113 14.5997 16.2515C14.8318 16.0995 15.0732 15.957 15.3199 15.8269L14.3832 14.9735C13.1015 15.603 11.6598 15.8316 10.2463 15.6295C8.8327 15.4274 7.51285 14.8039 6.45888 13.8405C5.40491 12.8771 4.66574 11.6184 4.3378 10.2286C4.00986 8.83886 4.10837 7.38251 4.62048 6.04955L3.90865 5.39912L3.66513 5.15976C3.44172 5.73006 3.24434 6.3118 3.07297 6.905C2.21456 9.88996 2.07319 13.0354 2.66039 16.0854C3.24759 19.1353 4.54675 22.0034 6.4521 24.4563C9.04864 27.7928 12.0885 30.0126 16.2887 31.1376C16.2906 31.0976 16.2789 31.0583 16.2554 31.0259C16.232 30.9936 16.1982 30.9702 16.1597 30.9596ZM11.41 16.3483C8.14531 20.0448 9.58771 24.7352 10.2236 26.4128C9.46075 25.1983 8.65421 23.451 8.51892 21.3457C8.24938 17.1829 9.49821 16.1516 9.49821 16.1516L9.08922 15.9226C10.2923 16.2671 11.2747 16.3628 11.41 16.3483ZM4.68292 13.095C5.16581 13.8839 5.90262 14.4906 6.71436 14.9548C6.57699 15.5792 6.40215 17.2443 7.19308 20.7337C7.60864 22.493 8.35373 24.1576 9.38894 25.6396C6.5697 22.2708 4.24687 19.2851 4.68292 13.095Z" fill="#1C1B28"/>
<path d="M11.3029 0.183167C9.65503 0.183167 8.04416 0.671887 6.67407 1.58751C5.30397 2.50314 4.2362 3.80453 3.60582 5.32708C2.97543 6.84963 2.81076 8.52493 3.13263 10.1411C3.45449 11.7572 4.24844 13.2416 5.41403 14.4065C6.57963 15.5714 8.06452 16.3644 9.68087 16.6852C11.2972 17.0061 12.9724 16.8404 14.4946 16.209C16.0167 15.5777 17.3175 14.5091 18.2322 13.1385C19.147 11.7678 19.6347 10.1566 19.6337 8.50872C19.632 6.30025 18.7536 4.18279 17.1915 2.62165C15.6294 1.06052 13.5114 0.183442 11.3029 0.183167ZM18.3401 7.67616C17.9592 7.45866 17.3452 7.17247 16.8654 6.956C16.6209 6.38674 15.7685 5.12438 15.3772 4.59363C15.5802 3.88179 15.5469 3.05964 15.5323 2.82445C16.3062 3.40015 16.9543 4.12777 17.4371 4.96274C17.9199 5.79771 18.2272 6.72245 18.3401 7.68032V7.67616ZM7.24422 4.98076C7.48358 4.75909 8.30364 4.03685 8.77612 3.79229C9.12371 3.61329 9.46298 3.46447 9.66696 3.3271C10.4423 3.57895 11.3862 4.10242 12.4539 4.88086C12.3499 5.3627 12.3301 7.03925 12.3259 7.61476L9.61076 9.27987C9.08417 9.03947 7.63344 8.46501 7.11309 8.24959C7.05021 7.15831 7.09412 6.0635 7.24422 4.98076ZM6.7145 8.28497C6.32945 8.61487 5.77788 9.65868 5.5354 10.0698L4.25535 9.26218C4.13885 8.1471 4.28755 7.02028 4.68932 5.97359C4.79387 5.70318 4.91482 5.43939 5.05148 5.1837C5.37281 4.85843 5.72364 4.56369 6.09945 4.30327C6.12817 4.32703 6.15962 4.34729 6.19312 4.36363C6.19312 4.36363 6.56985 4.68625 6.8602 4.88398C6.69783 6.0099 6.64902 7.14928 6.7145 8.28497ZM15.1379 2.8182C15.1696 3.32394 15.1346 3.83165 15.0338 4.32825C14.5978 4.31264 13.4426 4.56969 12.8556 4.68937C11.9482 4.015 10.8669 3.32502 9.86781 2.98263C9.88798 2.69701 9.88485 2.41021 9.85844 2.1251C10.5713 1.80352 11.2904 1.55064 11.9398 1.45697C12.9802 1.54997 13.9867 1.87385 14.886 2.40505C15.0183 2.5068 15.108 2.65404 15.1379 2.8182ZM9.27149 1.96379C8.95928 2.00958 8.55133 2.07827 8.1746 2.15632C8.85731 1.81843 9.59057 1.59417 10.3455 1.49236C9.99061 1.62973 9.62637 1.79 9.27149 1.96379ZM9.80329 9.62538L12.557 7.93425C13.1293 8.24646 14.5978 9.03114 15.0848 9.28715L15.2159 12.2802C14.5915 12.4373 12.967 13.5665 12.5861 13.8735L9.73148 12.3229C9.81473 11.7068 9.82826 10.2155 9.80329 9.62538ZM6.38669 3.41452C6.29094 3.55397 6.20457 3.68927 6.13692 3.80166L6.12443 3.80998C6.02869 3.87138 5.93711 3.93279 5.84865 3.99419C6.01734 3.79134 6.19695 3.59783 6.38669 3.41452ZM4.32819 9.77108L5.47296 10.4996C5.7144 11.124 6.6427 12.5872 6.91328 12.9192C6.91328 12.9317 6.91328 12.9442 6.91328 12.9566C6.8831 13.3833 6.87998 13.7757 6.8831 14.0504C5.54158 12.9802 4.63381 11.4597 4.32819 9.77108ZM7.28481 14.3501C7.26877 13.9026 7.27537 13.4545 7.30458 13.0076C7.88008 12.967 9.01028 12.7162 9.46402 12.6267L12.4113 14.2284C12.3624 14.5435 12.3353 14.8617 12.3301 15.1806C12.3281 15.2521 12.3506 15.3221 12.394 15.3789C12.4374 15.4357 12.4989 15.4759 12.5684 15.4928C10.7251 15.8248 8.82538 15.4132 7.28481 14.348V14.3501ZM16.6344 13.1804C16.623 13.0035 16.0277 12.5966 15.6145 12.377L15.4771 9.23824C15.9018 8.87712 16.5449 7.77399 16.8165 7.37228C17.4347 7.65223 18.1476 7.99669 18.363 8.16216L18.3807 8.17674C18.3859 8.28913 18.389 8.40257 18.389 8.516C18.3899 10.2316 17.7662 11.8889 16.6344 13.1783V13.1804Z" fill="#1C1B28"/>
<path d="M26.5801 8.27142H31.9491V31.0866H26.5791L26.5801 8.27142Z" fill="#1C1B28"/>
<path d="M34.7914 19.6691C34.6467 13.529 40.0667 8.11741 46.213 8.27143H50.9013V13.6414C48.1581 13.7455 43.9401 13.0076 41.9233 15.4033C38.8678 17.7459 40.5704 27.8354 40.1614 31.0866H34.7914V19.6691Z" fill="#1C1B28"/>
<path d="M53.7427 19.6691C53.5959 13.529 59.0169 8.11741 65.1643 8.27143H69.8526V13.6414C67.1093 13.7455 62.8914 13.0076 60.8745 15.4033C57.8191 17.7459 59.5216 27.8354 59.1126 31.0866H53.7427V19.6691Z" fill="#1C1B28"/>
<path d="M72.6934 8.27142H78.0633V31.0866H72.6934V8.27142Z" fill="#1C1B28"/>
<path d="M92.3274 8.27144C98.199 8.12991 103.494 13.1544 103.692 19.0114H103.721V31.0835H98.3509V19.6691C98.4436 16.443 95.5525 13.553 92.3274 13.6456C84.3567 13.7195 84.3671 25.651 92.3274 25.7176V31.0876C77.2196 30.7005 77.2196 8.65858 92.3274 8.27144Z" fill="#1C1B28"/>
<path d="M112.974 47.3204H107.608V20.5017H107.637C107.617 20.2547 107.607 20.0368 107.608 19.8481C107.608 16.6886 108.724 14.0018 110.957 11.7879C113.171 9.55531 115.859 8.439 119.018 8.439C122.159 8.439 124.836 9.55531 127.05 11.7879C129.283 14.0012 130.399 16.6879 130.399 19.8481C130.399 22.9903 129.283 25.6677 127.05 27.8802C124.837 30.1135 122.16 31.2298 119.018 31.2291C116.879 31.245 114.78 30.6442 112.973 29.4985L112.974 47.3204ZM119.019 13.8006C118.224 13.7958 117.436 13.9489 116.7 14.251C115.964 14.5531 115.296 14.9982 114.734 15.5605C114.171 16.1229 113.726 16.7912 113.424 17.5269C113.122 18.2625 112.969 19.0508 112.974 19.846C112.974 21.4924 113.56 22.9116 114.734 24.1035C115.292 24.6713 115.959 25.12 116.696 25.4225C117.433 25.725 118.223 25.875 119.019 25.8633C120.666 25.8633 122.085 25.2767 123.277 24.1035C124.449 22.9123 125.036 21.4931 125.036 19.846C125.048 19.0499 124.898 18.2597 124.595 17.5232C124.293 16.7866 123.844 16.119 123.277 15.5605C122.084 14.3879 120.665 13.8013 119.019 13.8006Z" fill="#1C1B28"/>
<path d="M138.603 47.3204H133.238V20.5017H133.266C133.247 20.2547 133.238 20.0368 133.238 19.8481C133.238 16.6886 134.354 14.0018 136.587 11.7879C138.801 9.55531 141.488 8.439 144.647 8.439C147.788 8.439 150.465 9.55531 152.68 11.7879C154.913 14.0012 156.029 16.6879 156.029 19.8481C156.029 22.9903 154.913 25.6677 152.68 27.8802C150.465 30.1135 147.788 31.2298 144.647 31.2291C142.508 31.2452 140.409 30.6444 138.603 29.4985V47.3204ZM144.647 13.8006C143.852 13.7959 143.064 13.9491 142.328 14.2513C141.593 14.5534 140.924 14.9986 140.362 15.5609C139.8 16.1232 139.355 16.7915 139.053 17.5271C138.751 18.2627 138.598 19.0509 138.603 19.846C138.603 21.4924 139.189 22.9116 140.362 24.1035C140.92 24.6713 141.588 25.12 142.324 25.4225C143.061 25.725 143.851 25.8749 144.647 25.8633C146.293 25.8633 147.712 25.2767 148.904 24.1035C150.078 22.9123 150.665 21.4931 150.664 19.846C150.676 19.0499 150.526 18.2596 150.223 17.523C149.921 16.7865 149.472 16.1188 148.904 15.5605C147.713 14.3879 146.294 13.8013 144.647 13.8006Z" fill="#1C1B28"/>
</g>
<defs>
<linearGradient id="paint0_linear_6_35" x1="-0.0437041" y1="15.856" x2="14.1867" y2="15.856" gradientUnits="userSpaceOnUse">
<stop stop-color="#FF0000"/>
<stop offset="1" stop-color="#550002"/>
</linearGradient>
<linearGradient id="paint1_linear_6_35" x1="4307.67" y1="16629.5" x2="3408.25" y2="15743.7" gradientUnits="userSpaceOnUse">
<stop stop-color="#FF0000"/>
<stop offset="1" stop-color="#550002"/>
</linearGradient>
<clipPath id="clip0_6_35">
<rect width="156" height="47.3516" fill="white"/>
</clipPath>
</defs>
</svg>
