<?xml version="1.0" encoding="UTF-8"?>
<svg id="Layer_2" data-name="Layer 2" xmlns="http://www.w3.org/2000/svg" xmlns:xlink="http://www.w3.org/1999/xlink" viewBox="0 0 272.93 77.02">
  <defs>
    <style>
      .cls-1 {
        fill: #6e2995;
      }

      .cls-2 {
        fill: url(#Degradado_sin_nombre_14);
      }
    </style>
    <linearGradient id="Degradado_sin_nombre_14" data-name="Degradado sin nombre 14" x1="0" y1="38.51" x2="86.59" y2="38.51" gradientUnits="userSpaceOnUse">
      <stop offset="0" stop-color="#00ade6"/>
      <stop offset="1" stop-color="#6e2995"/>
    </linearGradient>
  </defs>
  <g id="Capa_1" data-name="Capa 1">
    <g>
      <path class="cls-1" d="M102.09,45.35V11.44h6.56v33.91h-6.56ZM106.91,17.23v-5.79h18.52v5.79h-18.52ZM106.91,30.83v-5.59h17.07v5.59h-17.07ZM106.91,45.35v-5.79h18.76v5.79h-18.76Z"/>
      <path class="cls-1" d="M126.83,45.35l9.5-13.31,3.62,4.29-5.98,9.02h-7.14ZM143.81,45.35l-6.13-9.45-1.3-.96-9.07-12.88h7.48l5.64,8.54,1.21.92,9.6,13.84h-7.43ZM141.88,34.89l-3.71-4.25,5.55-8.58h7.09l-8.92,12.83Z"/>
      <path class="cls-1" d="M163.63,45.84c-2.38,0-4.52-.53-6.42-1.59s-3.39-2.51-4.49-4.34c-1.09-1.83-1.64-3.89-1.64-6.17s.55-4.39,1.64-6.22,2.6-3.29,4.51-4.36c1.91-1.08,4.04-1.62,6.39-1.62,1.83,0,3.52.34,5.06,1.01,1.54.68,2.88,1.64,4,2.89l-4.05,4.1c-.61-.68-1.34-1.19-2.19-1.54s-1.79-.53-2.82-.53c-1.16,0-2.19.26-3.11.79-.92.53-1.64,1.25-2.17,2.17-.53.92-.8,2-.8,3.26s.27,2.31.8,3.26c.53.95,1.25,1.69,2.17,2.22.92.53,1.95.8,3.11.8,1.06,0,2.02-.19,2.87-.56.85-.37,1.58-.91,2.19-1.62l4.1,4.1c-1.19,1.29-2.56,2.27-4.1,2.94s-3.23,1.01-5.06,1.01Z"/>
      <path class="cls-1" d="M185.77,45.84c-2.44,0-4.62-.52-6.51-1.57-1.9-1.04-3.4-2.48-4.51-4.32-1.11-1.83-1.66-3.92-1.66-6.27s.54-4.38,1.62-6.2c1.08-1.82,2.55-3.26,4.41-4.34,1.86-1.08,3.94-1.62,6.22-1.62s4.24.51,5.96,1.52c1.72,1.01,3.07,2.4,4.05,4.15.98,1.75,1.47,3.74,1.47,5.96,0,.42-.02.84-.07,1.28-.05.43-.14.92-.26,1.47l-19.58.05v-4.73l16.64-.05-2.56,1.98c-.07-1.38-.31-2.54-.75-3.47-.43-.93-1.06-1.65-1.88-2.15-.82-.5-1.83-.75-3.01-.75-1.25,0-2.35.28-3.28.84-.93.56-1.65,1.35-2.15,2.36-.5,1.01-.75,2.21-.75,3.59s.27,2.64.8,3.69c.53,1.05,1.29,1.85,2.29,2.41,1,.56,2.15.84,3.47.84,1.19,0,2.27-.2,3.23-.6.96-.4,1.8-1,2.51-1.81l3.71,3.71c-1.13,1.32-2.5,2.32-4.12,2.99s-3.38,1.01-5.28,1.01Z"/>
      <path class="cls-1" d="M200.19,45.35V11.44h4.58l1.98,6.56v27.35h-6.56ZM223.63,45.35l-20.11-26.05,1.25-7.86,20.11,26.05-1.25,7.86ZM223.63,45.35l-1.88-6.37V11.44h6.61v33.91h-4.73Z"/>
      <path class="cls-1" d="M244.52,45.84c-2.44,0-4.62-.52-6.51-1.57-1.9-1.04-3.4-2.48-4.51-4.32-1.11-1.83-1.66-3.92-1.66-6.27s.54-4.38,1.62-6.2c1.08-1.82,2.55-3.26,4.41-4.34,1.86-1.08,3.94-1.62,6.22-1.62s4.24.51,5.96,1.52c1.72,1.01,3.07,2.4,4.05,4.15.98,1.75,1.47,3.74,1.47,5.96,0,.42-.02.84-.07,1.28-.05.43-.14.92-.26,1.47l-19.58.05v-4.73l16.64-.05-2.56,1.98c-.07-1.38-.31-2.54-.75-3.47-.43-.93-1.06-1.65-1.88-2.15-.82-.5-1.83-.75-3.01-.75-1.25,0-2.35.28-3.28.84-.93.56-1.65,1.35-2.15,2.36-.5,1.01-.75,2.21-.75,3.59s.27,2.64.8,3.69c.53,1.05,1.29,1.85,2.29,2.41,1,.56,2.15.84,3.47.84,1.19,0,2.27-.2,3.23-.6.96-.4,1.8-1,2.51-1.81l3.71,3.71c-1.13,1.32-2.5,2.32-4.12,2.99s-3.38,1.01-5.28,1.01Z"/>
      <path class="cls-1" d="M255.71,27.6v-5.55h17.22v5.55h-17.22ZM261.16,45.35V12.36h6.32v32.99h-6.32Z"/>
    </g>
    <path class="cls-2" d="M83.78,10.2l-14.1-9.2c-1.92-1.25-4.37-1.34-6.37-.24l-17.03,9.36c-1.86,1.02-4.11,1.02-5.97,0L23.28.77c-2.01-1.1-4.46-1.01-6.37.24L2.81,10.2c-1.75,1.14-2.81,3.1-2.81,5.19v27.54c0,1.95.92,3.78,2.47,4.95l37.1,27.89c2.21,1.66,5.24,1.66,7.45,0l37.1-27.89c1.56-1.17,2.47-3.01,2.47-4.95V15.4c0-2.09-1.06-4.05-2.81-5.19ZM54.43,30.81c4.84-.17,4.64,7.77-.65,6.87-3.82-.65-3.62-6.73.65-6.87ZM42.62,22.76c8.25-.66,8.89,11.84.85,12.21-7.99.37-8.6-11.59-.85-12.21ZM31.37,30.81c4.29-.09,4.72,6.46.52,6.93-4.94.54-5.26-6.82-.52-6.93ZM21.81,46.93l4.17-5.82c2.06-2.24,5.31-2.84,8.05-1.55l-6.95,12.19c-.32.22-5.01-4.06-5.27-4.82ZM28.75,52.9l6.52-11.67c3.91-6.07,12.14-5.95,16,.18,2.07,3.28,3.69,7.03,5.78,10.33l.14.65c-8.39,5.47-19.91,5.92-28.44.52ZM64.39,45.3c-.26.54-1.48,1.97-1.94,2.48-.39.44-3.35,3.33-3.64,3.3l-6.66-11.32c-.04-.28.99-.56,1.23-.62.44-.12,1.04-.24,1.5-.27,1.87-.12,3.72.66,5.1,1.9l4.51,4.22c.05.13-.04.21-.09.32Z"/>
  </g>
</svg>