<svg width="155" height="61" viewBox="0 0 155 61" fill="none" xmlns="http://www.w3.org/2000/svg">
<g clip-path="url(#clip0_1822_2040)">
<path d="M17.82 13.3701C15.47 13.3701 13.5 13.9001 11.9 14.9501C10.31 16.0101 9.15 17.3101 8.44 18.8601H8.11V13.7701H0V47.7801H8.57V30.1201C8.57 27.4301 9.36 25.2901 10.93 23.7301C12.5 22.1701 14.58 21.3801 17.15 21.3801H22.14V13.3801H17.82V13.3701Z" fill="#00DBFF"/>
<path d="M58.65 31.4998C58.65 27.7898 57.84 24.5398 56.25 21.7398C54.66 18.9298 52.51 16.7898 49.8 15.2798C47.09 13.7798 44.05 13.0298 40.69 13.0298C37.33 13.0298 34.25 13.7998 31.47 15.3398C28.7 16.8898 26.51 19.0198 24.89 21.7298C23.27 24.4398 22.46 27.4598 22.46 30.7698C22.46 34.0798 23.27 37.0798 24.89 39.7698C26.51 42.4598 28.7 44.5898 31.47 46.1498C34.25 47.7198 37.31 48.4998 40.69 48.4998C43.61 48.4998 46.26 47.9698 48.64 46.9198C51.01 45.8598 52.98 44.4398 54.56 42.6398C56.13 40.8598 57.25 38.8898 57.92 36.7198H49.08C48.27 38.0898 47.21 39.1698 45.88 39.9598C44.55 40.7498 42.85 41.1498 40.76 41.1498C38.85 41.1498 37.18 40.7298 35.73 39.8998C34.29 39.0598 33.18 37.8398 32.41 36.2598C31.98 35.3898 31.67 34.4398 31.48 33.4198H58.64V31.4998H58.65ZM31.67 27.3298C31.86 26.6098 32.11 25.9498 32.42 25.3098C33.19 23.7498 34.3 22.5298 35.74 21.6698C37.18 20.8098 38.86 20.3798 40.77 20.3798C42.54 20.3798 44.11 20.7498 45.45 21.4998C46.81 22.2598 47.88 23.2898 48.67 24.6098C49.18 25.4398 49.56 26.3498 49.82 27.3298H31.67Z" fill="#00DBFF"/>
<path d="M89.24 13.77V18.66H88.91C87.89 17.03 86.4 15.68 84.45 14.62C82.5 13.57 80.26 13.04 77.73 13.04C74.9 13.04 72.28 13.77 69.89 15.22C67.49 16.68 65.59 18.74 64.17 21.41C62.75 24.08 62.04 27.14 62.04 30.58C62.04 34.02 62.74 37.07 64.14 39.71C65.54 42.35 67.41 44.39 69.76 45.83C72.1 47.27 74.72 47.98 77.6 47.98C80.08 47.98 82.28 47.49 84.19 46.49C86.1 45.5 87.51 44.3 88.45 42.89H88.78V53.02H67.43V60.49H97.29V13.77H89.25H89.24ZM87.63 35.93C86.88 37.43 85.85 38.57 84.54 39.33C83.23 40.11 81.71 40.5 79.99 40.5C78.17 40.5 76.58 40.11 75.2 39.33C73.83 38.56 72.76 37.42 72 35.93C71.25 34.43 70.87 32.64 70.87 30.57C70.87 28.5 71.25 26.64 72 25.14C72.76 23.64 73.82 22.5 75.2 21.74C76.57 20.96 78.17 20.58 79.99 20.58C81.72 20.58 83.23 20.96 84.54 21.74C85.85 22.51 86.88 23.65 87.63 25.14C88.39 26.65 88.77 28.45 88.77 30.57C88.77 32.69 88.39 34.43 87.63 35.93Z" fill="#00DBFF"/>
<path d="M129.8 13.77V18.66H129.47C128.45 17.03 126.97 15.68 125.01 14.62C123.06 13.57 120.82 13.04 118.3 13.04C115.46 13.04 112.84 13.77 110.45 15.22C108.05 16.68 106.15 18.74 104.73 21.41C103.31 24.08 102.6 27.14 102.6 30.58C102.6 34.02 103.3 37.07 104.7 39.71C106.1 42.36 107.97 44.39 110.32 45.83C112.67 47.27 115.29 47.98 118.16 47.98C120.64 47.98 122.84 47.49 124.75 46.49C126.66 45.5 128.08 44.3 129.01 42.89H129.34V53.02H107.99V60.49H137.86V13.77H129.81H129.8ZM128.2 35.93C127.44 37.43 126.41 38.57 125.1 39.33C123.79 40.11 122.27 40.5 120.55 40.5C118.73 40.5 117.14 40.11 115.76 39.33C114.39 38.56 113.32 37.42 112.56 35.93C111.81 34.43 111.43 32.64 111.43 30.57C111.43 28.5 111.81 26.64 112.56 25.14C113.32 23.64 114.38 22.5 115.76 21.74C117.13 20.96 118.73 20.58 120.55 20.58C122.28 20.58 123.79 20.96 125.1 21.74C126.41 22.51 127.44 23.65 128.2 25.14C128.95 26.65 129.33 28.45 129.33 30.57C129.33 32.69 128.95 34.43 128.2 35.93Z" fill="#00DBFF"/>
<path d="M145.49 13.77V47.78H154.07V13.77H145.49ZM153.21 1.36C152.27 0.46 151.12 0 149.75 0C148.38 0 147.23 0.46 146.33 1.36C145.42 2.26 144.96 3.38 144.96 4.71C144.96 6.04 145.42 7.15 146.33 8.05C147.23 8.95 148.38 9.41 149.75 9.41C151.12 9.41 152.27 8.95 153.21 8.05C154.14 7.15 154.6 6.03 154.6 4.71C154.6 3.39 154.14 2.26 153.21 1.36Z" fill="#00DBFF"/>
</g>
<defs>
<clipPath id="clip0_1822_2040">
<rect width="154.6" height="60.48" fill="white"/>
</clipPath>
</defs>
</svg>
